Release Info:

General
Format                                   : Matroska
Format version                           : Version 2
File size                                : 691 MiB
Duration                                 : 1h 22mn
Overall bit rate                         : 1 173 Kbps

Video
ID                                       : 1
Format                                   : MPEG-4 Visual
Format profile                           : Advanced Simple@L5
Format settings, BVOP                    : Yes
Format settings, QPel                    : No
Format settings, GMC                     : No warppoints
Format settings, Matrix                  : Default (H.263)
Codec ID                                 : V_MS/VFW/FOURCC / XVID
Codec ID/Hint                            : XviD
Duration                                 : 1h 22mn
Bit rate                                 : 1 022 Kbps
Width                                    : 640 pixels
Height                                   : 272 pixels
Display aspect ratio                     : 2.35:1
Frame rate mode                          : Constant
Frame rate                               : 23.976 fps
Color space                              : YUV
Chroma subsampling                       : 4:2:0
Bit depth                                : 8 bits
Scan type                                : Progressive
Compression mode                         : Lossy
Bits/(Pixel*Frame)                       : 0.245
Stream size                              : 602 MiB (87%)
Language                                 : English
Default                                  : Yes
Forced                                   : No

Audio
ID                                       : 2
Format                                   : MPEG Audio
Format version                           : Version 1
Format profile                           : Layer 3
Mode                                     : Joint stereo
Mode extension                           : MS Stereo
Muxing mode                              : Header stripping
Codec ID                                 : A_MPEG/L3
Codec ID/Hint                            : MP3
Duration                                 : 1h 22mn
Bit rate mode                            : Constant
Bit rate                                 : 128 Kbps
Channel(s)                               : 2 channels
Sampling rate                            : 44.1 KHz
Compression mode                         : Lossy
Stream size                              : 75.5 MiB (11%)
Writing library                          : LAME3.98.2
Language                                 : English
Default                                  : Yes
Forced                                   : No

Source:
credit to original movie ripper SPARKS (Thanks)

IMDB Info:

A couple are haunted by a supernatural presence that is unleashed during a college experiment.

Director: Todd Lincoln
Writer: Todd Lincoln
Stars: Ashley Greene, Sebastian Stan and Tom Felton 

Genres: Horror | Thriller
 
http://www.imdb.com/title/tt1433822/

Screen Shot:
 
http://www.shotpix.com/images/03117761316229260373.png 
http://www.shotpix.com/images/49194666632994077605.png 
http://www.shotpix.com/images/72571291375122197793.png 
http://www.shotpix.com/images/63862337318196964902.png 
http://www.shotpix.com/images/66001612236088522232.png 
http://www.shotpix.com/images/27425448558507178072.png